<svg id="Layer_1" data-name="Layer 1" xmlns="http://www.w3.org/2000/svg" viewBox="0 0 216 216"><defs><style>.cls-1{fill:#fefefe;}</style></defs><path class="cls-1" d="M146.92951,128.99012c-.67687-.068-1.00655.66677-1.73425.657l.3505,1.11534-.66072-.19052c-.62244.60016-1.22119,1.21034-1.85623,1.78a4.62236,4.62236,0,0,0-1.43886,1.7308c-.036.09542-.08037.24113-.15089.262-.97741.289-1.321,1.25183-1.9848,1.87025a23.00594,23.00594,0,0,1-5.71718,3.8708,7.06837,7.06837,0,0,1-4.73213.45687,10.86465,10.86465,0,0,1-6.364-3.97713,20.20141,20.20141,0,0,1-3.58663-7.28894c-.41512-1.45713-.6998-2.95142-1.04446-4.42867-.04459-.19109-.09617-.38055-.18394-.72591-.38942.29123-.68739.49937-.96939.72729a40.942,40.942,0,0,0-6.65445,7.07527c-2.05815,2.68442-4.0787,5.39764-6.12607,8.0904-.43835.57654-.92086,1.11956-1.38393,1.67727a2.21656,2.21656,0,0,0-.74735,1.41568.73015.73015,0,0,1-1.02165.57754,2.66379,2.66379,0,0,1-1.992-1.4522c-.51465-1.27689-1.11067-2.52075-1.65251-3.787a2.98763,2.98763,0,0,1-.0344-2.11434c1.10112-3.70262,2.15725-7.41863,3.22348-11.13159.07289-.25383.09931-.521.17352-.92418-.7038.383-1.27557.69246-1.84558,1.00514a.63931.63931,0,0,0-.41006.61689c-.00759.22731-.35448.4688-.586.65924a30.36146,30.36146,0,0,1-8.54956,4.768c-.28923.11105-.57807.22341-.8641.34237a1.75324,1.75324,0,0,0-.26176.21212,8.67043,8.67043,0,0,0,2.87759-.34729c-.82825,1.24078-.82771,1.24171-1.56876,1.66978a3.72277,3.72277,0,0,1-2.413.89965c.024.66381-.41968.88059-.911,1.09762a19.70974,19.70974,0,0,1-7.45945,1.94458,6.05138,6.05138,0,0,1-5.65111-3.1657,9.19862,9.19862,0,0,1-1.17335-4.14647,14.00323,14.00323,0,0,1,1.20667-7.05425,30.36217,30.36217,0,0,1,8.01221-11.17595,20.01793,20.01793,0,0,1,3.68879-2.46206,5.235,5.235,0,0,1,5.66947.31326.961.961,0,0,1,.3802.45156,4.401,4.401,0,0,0,1.38466,2.02539,1.10289,1.10289,0,0,1,.41015,1.17614,15.795,15.795,0,0,1-.27515,1.73007,3.87126,3.87126,0,0,1-.90215,1.45687,4.35749,4.35749,0,0,0-.94216,1.195,9.2595,9.2595,0,0,1-2.38874,2.965c-1.4278,1.19722-2.8974,2.34461-4.35022,3.51194a.77171.77171,0,0,1-.25667.17066c-1.53324.38989-3.05324.87061-4.61015,1.1116a8.27671,8.27671,0,0,1-2.446-.41395c-1.242,1.74618-1.329,3.98721-1.82549,6.14851a6.75963,6.75963,0,0,0,4.61035,1.2473,19.00976,19.00976,0,0,0,5.9058-1.43742c1.968-.74175,3.9248-1.5132,5.88447-2.27684.22408-.08731.43643-.20538.65218-.31327,2.52868-1.26445,5.06174-2.52035,7.58192-3.80152.60808-.30913,1.17323-.70268,1.85051-1.11345a1.96928,1.96928,0,0,1-.67494-1.65343c.00846-.36788.11459-.76017.52352-.7611.485-.0011.5553-.35347.70656-.63065a16.62522,16.62522,0,0,0,1.65667-5.09614c.26184-1.45928.42657-2.93577.66718-4.39924a3.89064,3.89064,0,0,1,.37359-.89321,3.03838,3.03838,0,0,0,.21938-.44564c.47028-1.83152,1.23035-3.59862,1.22732-5.53756a1.407,1.407,0,0,1,.21518-.54412c.059-.12134.22671-.24526.20766-.34036-.16484-.82337.64154-1.505.33093-2.34905a.41924.41924,0,0,1,.12235-.35249,2.45323,2.45323,0,0,0,.57052-1.61571,11.96856,11.96856,0,0,1,.42515-1.76829c.21367-.64687.104-1.39512.62468-1.9512a.59536.59536,0,0,0,.13158-.48092c-.2536-.87861.229-1.6.46772-2.37223.08675-.28062.312-.51993.0572-.85742a.633.633,0,0,1,.20113-.57636.83487.83487,0,0,0,.46528-.84806c.02162-.36645-.13521-.80531.01786-1.086.18094-.3318.41794-.5283.24508-.98119-.06909-.181.35162-.504.42887-.79447.22112-.83141.37143-1.68139.56837-2.51964.08709-.37069-.06546-.84633.45061-1.05388.07964-.032.09648-.242.126-.37334.27226-1.21082.61355-2.41283.77566-3.63845.06683-.50519.60914-.53262.62977-.967a5.67409,5.67409,0,0,1,.08375-1.14754,3.64133,3.64133,0,0,1,.46743-.80011c.086-.14884.25793-.36864.20964-.45524-.37955-.6807.25042-1.15684.32381-1.74194a5.59163,5.59163,0,0,1,.43841-1.89137c.83787-1.58845,1.07-3.37723,1.77182-5.00607a6.14591,6.14591,0,0,0,.12457-1.07433,2.2442,2.2442,0,0,1,.36819-1.02661,4.51731,4.51731,0,0,0,.817-2.44847,6.77718,6.77718,0,0,1,.51662-1.61021c.52936-1.13149,1.30809-2.20332,1.29672-3.54724a1.46293,1.46293,0,0,1,.19559-.57056c.69347-1.50146,1.382-3.00536,2.09353-4.49828a42.5474,42.5474,0,0,1,1.9313-3.88437,5.67032,5.67032,0,0,1,5.33954-2.94244,1.22746,1.22746,0,0,1,.82.27538,6.86912,6.86912,0,0,0,2.36162,1.64464,2.77785,2.77785,0,0,1,1.53162,1.72551,21.57713,21.57713,0,0,1,.8265,3.39979,22.42509,22.42509,0,0,1-.45434,6.48557,4.11266,4.11266,0,0,1-.58311,1.09129c.40126.57967.01873,1.17086-.14974,1.77449a3.12213,3.12213,0,0,0-.2357.76774,11.35762,11.35762,0,0,1-.71833,3.53346c-.37966,1.18156-.76551,2.36245-1.09227,3.559-.11791.43177-.13287.853-.87115.61053a2.60958,2.60958,0,0,1-.0429,2.26625,10.678,10.678,0,0,1-.85036,2.30908c-.51624.73124-.46177,1.57417-.81063,2.3167-.366.77906-.66049,1.593-.96248,2.40064-.51841,1.38637-1.0184,2.77965-1.55276,4.24293l-.699.08221c.77914.743.49129,1.3268-.04232,1.919a2.1889,2.1889,0,0,0-.682,1.57428c.00642.16772-.154.3408-.23435.51307-.2371.50864-.47247,1.0181-.7469,1.61l-.43565.11549.38913.68969a4.71865,4.71865,0,0,0-1.35049,2.11427,8.41482,8.41482,0,0,0-1.1511,2.55807,3.64919,3.64919,0,0,1-.64067,1.28085,2.24666,2.24666,0,0,0-.51111,1.88454,3.38069,3.38069,0,0,0-1.47463,2.8915.78925.78925,0,0,1-.18667.54353,12.653,12.653,0,0,0-1.954,3.50631c-.45609.99467-1.05408,1.92517-1.605,2.87489-.17021.29341-.39264.55651-.64839.91333-.00483-.01868.15993.2497.08494.38891-.42843.79522-.88391,1.58-1.38957,2.32815a8.28154,8.28154,0,0,0-1.0216,1.85213,10.077,10.077,0,0,1-2.36464,3.73183,1.75074,1.75074,0,0,0-.53677.94774,4.71087,4.71087,0,0,1-.62907,1.39732,3.132,3.132,0,0,0-.75111,2.08938c.021.1428-.09781.31512-.17552.46131a2.96513,2.96513,0,0,0-.36075.62141,6.80953,6.80953,0,0,1-.50506,2.2602,6.81976,6.81976,0,0,0-.85282,2.26718,6.88363,6.88363,0,0,0,.71039-.53741c.96472-.98789,1.891-2.01479,2.8818-2.97533,1.26206-1.22347,2.522-2.45847,3.877-3.57431a11.36165,11.36165,0,0,1,5.12558-2.34708,1.23431,1.23431,0,0,1,1.20213.29043c.46741.40185,1.17216.52265,1.43446,1.20312.02391.062.1858.10833.27846.10056.7961-.06678.95293.50936,1.13181,1.08667a26.83735,26.83735,0,0,1,.80023,5.519c.17066,1.81848.35309,3.63938.63646,5.44256a6.567,6.567,0,0,0,1.58793,3.433c.21762.24082.40064.846.941.35421.02331-.0212.14509.01348.16948.05353.45365.74414,1.16535.466,1.77805.40576a7.45664,7.45664,0,0,0,5.03163-2.12259,2.01542,2.01542,0,0,1,.41415-.3077,165.92283,165.92283,0,0,0,13.6747-10.05551c1.49678-1.16785,3.02616-2.29448,4.50655-3.48244a13.02507,13.02507,0,0,0,1.59916-1.59182c.47687-.54354.87216-1.1577,1.3248-1.72364a9.48758,9.48758,0,0,1,5.80174-3.498,4.16865,4.16865,0,0,1,1.72741.05738,14.14651,14.14651,0,0,1,2.73411.92462,4.45349,4.45349,0,0,1,2.18865,6.26005c-.15833.34055-.33766.67136-.581,1.15242a7.76674,7.76674,0,0,0,.842-.134c.46359-.1313.91125-.32451,1.37911-.43386a1.81871,1.81871,0,0,1,2.27853.952,5.20682,5.20682,0,0,1,.20678,5.05488,1.86725,1.86725,0,0,0-.208,1.15048,7.14222,7.14222,0,0,1-.09523,1.94245c-.08958.61172-.30746,1.20356-.42361,1.81279a2.99628,2.99628,0,0,0,.14116,1.914c.73834-.14441,1.44418-.258,2.13809-.42215a29.97625,29.97625,0,0,0,13.025-6.93977c2.921-2.5792,5.65612-5.36893,8.47218-8.06685.41825-.4007.82715-.81116,1.41887-1.39242a8.774,8.774,0,0,1-.10527.98292,9.75455,9.75455,0,0,1-2.22555,4.27691c-1.22827,1.34842-2.55631,2.61147-3.89881,3.84887-1.49668,1.3795-3.055,2.69245-4.59547,4.0239a5.66435,5.66435,0,0,1-.84725.58518c-1.99365,1.16712-3.99232,2.32569-6.03032,3.51083l.03713.48057a1.86041,1.86041,0,0,0,.28572-.06279,21.35664,21.35664,0,0,0,5.05145-3.00837,40.471,40.471,0,0,1,5.87843-4.06174l-.22122-.64344c.69054.21583.909-.23438,1.21552-.58907a3.59033,3.59033,0,0,1,2.38509-1.3908c-.22207.26991-.43556.54741-.66746.80857a45.81437,45.81437,0,0,1-11.80445,9.33775c-1.82821,1.03892-3.725,1.95672-5.5849,2.94048a2.633,2.633,0,0,1-1.79662.30251,7.82835,7.82835,0,0,0-1.027-.12876,4.22436,4.22436,0,0,1-3.53075-2.36525,2.922,2.922,0,0,1-.45336-1.56139c.048-2.37944.08216-4.75915.118-7.13882a3.01779,3.01779,0,0,0-.07018-.41717c-.39061.25052-.84129.39286-1.03638.69841a2.81328,2.81328,0,0,1-1.19542.91773,11.17138,11.17138,0,0,0-2.066,1.35687c-1.395,1.23425-2.7,2.56953-4.07788,3.82394-1.45339,1.3232-2.9075,2.6517-4.43909,3.88093a9.08494,9.08494,0,0,1-4.17286,1.96583,8.55128,8.55128,0,0,1-1.64459.12107,2.29859,2.29859,0,0,1-2.46059-1.58156,11.08317,11.08317,0,0,0-1.44175-2.2837,1.569,1.569,0,0,1-.18483-1.37029,24.10574,24.10574,0,0,1,1.82464-5.36723c.17265-.51344.34926-1.02119.52586-1.52894l-.175-.10955-.72623.57951ZM118.52524,63.93651c-.7411.343-.74376.34747-.57256,1.15875.22438-.45754.3982-.812.56767-1.17485.19519-.48775.19142-.51962-.17906-.95179ZM121.497,85.71193c-.39305-.17553-.4637.14358-.567.38293q-2.51733,5.83365-5.024,11.67184a4.97906,4.97906,0,0,0-.1865.67919.73853.73853,0,0,0,.40793-.395,94.84361,94.84361,0,0,0,4.82731-10.96135,5.90446,5.90446,0,0,1,.676-1.07022c-.0072-.016-.073-.16181-.14388-.30876q.11508-.43747.23023-.87493.10223-.387.20536-.77373a2.23545,2.23545,0,0,0,.36775-.4457,142.75524,142.75524,0,0,0,5.56-14.81177c.06127-.18548.13616-.46383.048-.58364-.30486-.4144-.107-.80166-.00808-1.185.65484-2.53772,1.34733-5.06588,1.98442-7.608a28.01292,28.01292,0,0,0,.98343-9.938c-.02835-.25712-.0984-.50965-.14854-.76169a2.5418,2.5418,0,0,0-2.05354,1.329,11.049,11.049,0,0,1-1.13214,1.59879,4.06357,4.06357,0,0,0-.90042,1.35637q-2.78349,6.63125-5.56751,13.26227c-.10521.25118-.29569.57768-.21574.77615.34157.84778-.17017,1.44323-.48912,2.11547-.25065.52827-.44635,1.084-.64531,1.63512q-.91167,2.52525-1.80508,5.05707a2.71183,2.71183,0,0,0-.09706.40115c-.87824,4.61447-2.21136,9.11208-3.45308,13.63544-1.23208,4.48815-2.35272,9.0072-3.49147,13.52047-.24823.9838-.36605,2.00051-.56029,3.09424.18017-.10827.25907-.12825.28775-.17749.15573-.26749.30368-.53981.446-.81479q2.75781-5.32872,5.51053-10.66006c.15767-.30577.28138-.62936.41551-.94693q3.96622-9.38917,7.9336-18.77785c.12751-.30146.29232-.58716.43975-.8802a2.40421,2.40421,0,0,1-.17011,1.2226c-.9699,2.545-1.95357,5.08477-2.92523,7.62913-.12074.31616-.19693.64934-.2933.97513C121.5801,84.56484,121.16689,85.03685,121.497,85.71193Zm41.77166,32.56292a14.16191,14.16191,0,0,0-5.04122,2.74565,18.56242,18.56242,0,0,0-4.33942,5.22982c-1.39727,2.49415-2.66387,5.06158-3.98126,7.60026-.10266.19785-.16131.41852-.29563.77525.39375-.19037.64626-.28658.872-.42615.87922-.54364,1.77742-1.06233,2.61916-1.65989,3.92855-2.78884,7.06354-6.45651,10.69879-9.60885C162.98274,121.46628,163.525,119.90282,163.26865,118.27485ZM84.527,114.11765l.08415.16146c-.4217.351-.84872.69585-1.26364,1.0547-.41742.361-.83345.7249-1.23055,1.10779-.42191.40683-.83278.82668-1.22624,1.261a3.48016,3.48016,0,0,0-.89749,1.24928c3.48463-1.75731,6.66531-3.84778,8.79729-7.23365a19.94024,19.94024,0,0,0-3.16154,1.21665,11.46134,11.46134,0,0,0-1.6688,1.19771c-.05844.044-.06048.16292-.10164.28575Zm107.9127,7.4523c-.31121.26567-.62849.52456-.93268.798a95.1026,95.1026,0,0,1-12.24219,9.49974,1.05712,1.05712,0,0,1-.56076.22347c-.62638-.04476-.94541.67241-1.56856.59312l-.06153.58971C180.96386,132.04639,190.52364,124.87244,192.43971,121.57Zm-78.08295-20.34344c-1.3692,1.6533-1.95537,3.65969-2.72512,5.60088a2.187,2.187,0,0,0,.82432-.81121c.29276-.57946.49465-1.2044.7439-1.80644.10043-.24259.16188-.56908.35-.696A2.26227,2.26227,0,0,0,114.35676,101.22651ZM82.77994,133.462c.424,0,.78543.00141,1.14688-.00107.08475-.00056.24084-.00376.24374-.0235.09785-.66338.69891-.38878,1.05238-.56388.28833-.14281.60212-.23421.90462-.34841a9.933,9.933,0,0,0-1.8552.046c-.59209.05919-1.18207.13951-1.87112.22236Zm60.69941-5.803.16582.16029c2.39391-1.51289,3.55484-2.44983,3.94665-3.30694ZM108.54451,98.13717a5.22021,5.22021,0,0,0-.77056,2.71671,4.16348,4.16348,0,0,0,.318-.8031c.12606-.24577.49458-.40245.54575-.64307C108.71433,99.0473,108.99325,98.63107,108.54451,98.13717Zm1.27539-3.56357c-.53388-.10371-.56-.11258-.63924.12073a10.58927,10.58927,0,0,0-.37823,1.346c-.01669.08442.21574.21809.33331.32913C109.37524,95.74077,109.59766,95.157,109.8199,94.5736Zm-.27843-1.96458v1.07392l.51268.15672.20478-1.42622Zm1.83385-5.29864a1.24138,1.24138,0,0,0,.63674-1.14506,1.81675,1.81675,0,0,0-.19359-.58166C111.20658,86.11421,111.36639,86.68885,111.37532,87.31038Zm-8.641,40.70768c.17235-.61849.653-1.176.4784-2.08839C102.79976,126.69458,102.24554,127.20975,102.73434,128.01806Zm44.46441-1.37083c.75632-.35754,1.31574-.67552,1.43407-1.58377C148.13321,125.62289,147.33959,125.68526,147.19875,126.64723Zm-33.433-46.324c.17136-.9508.17136-.9508-.1282-1.53536C113.30906,79.88793,113.30906,79.88793,113.76572,80.32327Zm6.13783-20.56711c-.6263.54722-.63023.55606-.58315,1.26485.198-.17851.39541-.36887.60594-.5434C120.24114,60.21664,120.19533,59.99048,119.90355,59.75616Zm22.575,69.06144-.18189-.17832a2.728,2.728,0,0,0-1.29729,1.09373l.152.17784Zm-35.79687-24.06908c.65743-.75615.65743-.75615.10914-1.23034Zm8.68473-5.47739-.60672,1.52865C115.50666,100.48753,115.28185,99.82416,115.36639,99.27113ZM150.139,122.99658l-.17729-.19033c-.34684.16177-.767.25372-.625.8966ZM115.734,71.347l-.26521,1.31117A.90221.90221,0,0,0,115.734,71.347Zm-9.73558,57.84886-.17372-.14688a1.43663,1.43663,0,0,0-.811,1.30412Zm3.34538-31.94275-.08656-.37754a3.62606,3.62606,0,0,0-.64452.14074,1.96348,1.96348,0,0,0,.0698.44464Zm3.47857-13.65962.27079-.08629-.279-.983C112.27533,83.09016,112.48848,83.35391,112.82239,83.59346Zm.00349-1.9084c.78684-.40388.78684-.40388.38957-.96142Zm-1.83932,7.49317-.32671-.08057c-.03314.40861-.47648.70656-.32191,1.16582l.24046.07337ZM115.5768,73.5787c-.86225.49557-.86225.49557-.72785,1.26514Zm-1.79842,12.62389c-.73291.22289-.73291.22289-.30288.76892Zm-4.9001,41.62112-.235-.18241a.84978.84978,0,0,0-.45228,1.01687Zm2.31943-2.9836.24718.22712c.51045-.301.51045-.301.55274-.60757Zm4.76387-48.804-.24807-.13951-.48943.93521.18417.09753Zm-4.13233,13.72779.19658-1.0955C111.65361,88.92959,111.23629,89.17117,111.82925,89.76391Zm3.93557-11.98665-.09039,1.34828C116.33754,78.696,115.95677,78.35735,115.76482,77.77726Zm31.1185,48.94086-.28158-.17482-.3204.48958a1.69085,1.69085,0,0,0,.29219.16183A4.17244,4.17244,0,0,0,146.88332,126.71812Zm-45.24769,4.3062-.17971-.04819c-.07085.22588-.15223.44952-.20168.68-.00783.03653.1283.10394.26213.20614Zm15.13029-62.401-.375.90656C117.04437,69.19671,117.04437,69.19671,116.76592,68.62327Zm.56579,4.16263.21532.09269.3204-.95606-.24487-.07625Zm-9.58139,29.77767c-.18016-.08392-.29164-.18128-.38682-.16736-.09457.01383-.17277.13958-.25814.21626a1.39117,1.39117,0,0,0,.34383.26367C107.49119,102.89208,107.60491,102.71914,107.75032,102.56357Zm4.00656-10.51608.331.004.08019-.83749-.23937-.03631Zm-9.87424,38.33382.34159-.71978C101.58784,129.66339,101.67416,130.005,101.88264,130.38131ZM114.89805,76.1061c-.34239-.39842-.5373-.37541-.65786-.00569-.02516.07711.01716.17623.03811.34223Zm2.24655-4.63172-.14678-.12963-.30424.63725.15837.0651Zm-.071-4.04929.25633.00629v-.67465l-.1797-.00945Zm2.06477-5.81541-.27058-.06328-.13851.68984.22409.04494Zm-8.386,29.86086-.09114-.2139-.63067.25154.09481.22583Zm-2.557,35.27332-.1955-.14282-.361.55844.14729.099Zm37.15086,1.69348c-.34333-.10235-.61818-.07571-.67584.35268Zm2.65748,5.76166.17082.12278.27123-.54282-.113-.06465ZM118.93524,64.09459l.08688.15159a.88659.88659,0,0,0,.2524-.10853,2.27607,2.27607,0,0,0,.248-.29753l-.13976-.12667Zm-3.20057,41.24.16592.06987.22927-.61179-.11784-.04729Zm-6.57006,21.75415.11652.15619.44356-.34776-.114-.15224ZM112.024,84.629l-.17156.0863a1.00072,1.00072,0,0,0-.06293.3352c.01016.06641.12675.11656.1956.174a1.10842,1.10842,0,0,0,.14892-.32368C112.14375,84.81546,112.064,84.72,112.024,84.629Zm-5.7936,21.3356.467.2393.1646-.66ZM113.661,85.12265l.20338.05879.17752-.70215-.14516-.04211Zm-1.41916-1.26879a2.44945,2.44945,0,0,0-.25257.42229c-.01435.04088.10256.12785.15939.19372a2.19082,2.19082,0,0,0,.27461-.33245C112.44223,84.104,112.33983,84.00188,112.24188,83.85386Zm2.08581-6.352-.21422-.06713-.16042.56963.19135.05422Z"/><path class="cls-1" d="M29.73619,149.94861l.35978.03777a16.74548,16.74548,0,0,1-1.26836,4.27655,7.90736,7.90736,0,0,0-.42687,1.59275.7996.7996,0,0,1-.372.47667v-.74648c-.15112.03123-.30484.02446-.32492.073a8.75616,8.75616,0,0,0-.75959,1.86029c-.13995.81021-.45223,1.58951-.66615,2.38856a4.92375,4.92375,0,0,0-.17387,1.33525c.92862-.84111,1.09987-2.07725,1.78938-3.12307a3.19055,3.19055,0,0,1,.06933.8229c-.15464.88131-.37544,1.75089-.53613,2.63132-.154.84394-.26017,1.69655-.3971,2.54377a3.95744,3.95744,0,0,1-.18286.7868c-.40734,1.06061-.88392,2.09746-1.23642,3.17531a4.086,4.086,0,0,1-1.158,1.79324c-.26472.239-.91127.47261-1.06476.33944-.46441-.403-1.23327-.231-1.53835-.91338-.10994-.24589-.29031-.66139-.76729-.5222-.045.01313-.16929-.17168-.225-.28082a2.70018,2.70018,0,0,1-.3404-2.72334q2.19051-9.47413,4.3906-18.946c.01558-.06721.03466-.1336.05034-.20079.30405-1.30276.304-1.30278,1.18039-2.08461-.60185-.56711-.40694-1.22444-.13613-1.86851.25062-.59607.53948-1.17607.81343-1.76557q-.11726.82551-.23839,1.65589l.15475.0189.9178-2.87021-.11959-.04974-.74536,1.28049c.16295-1.874.98239-3.57751,1.39844-5.38573.20725-.90077.41-1.8026.63072-2.77433-.21878-.13259-.48051-.2845-.73559-.44684a6.45921,6.45921,0,0,1-3.13518-5.81609.90806.90806,0,0,1,.3996-.88251,1.50358,1.50358,0,0,0,.4649-.63975,2.65812,2.65812,0,0,1,3.13577-1.87331c.49943.03247,1.00943-.12171,1.51212-.10684a5.366,5.366,0,0,1,1.10233.28208c.12566-.17747.3194-.45108.51247-.724q-.001.40669-.00065.812l.17317.02268.37319-.93069-.5796.13165.196-.95969c.28712-.0598.58852-.03827.65408-.15231a4.611,4.611,0,0,0,.39307-1.05389c.13726-.48813.2411-.98567.36759-1.5139l-.68918.26626.02027.01847.24346-.76356,1.02764-.20816-.78577-.50711a8.45992,8.45992,0,0,0,1.19435-1.45022,5.17773,5.17773,0,0,0,.41564-1.90372c-.4862.34647-.48825.97092-.84377,1.39389a7.871,7.871,0,0,1,1.13917-3.70458l-.16942,1.47768.11341.04156a3.3278,3.3278,0,0,0,.40482-.67358c.26859-.84447.509-1.69845.73883-2.55454.145-.53993.252-1.09005.37606-1.6356l-.21783-.05376-.5436,1.99555c-.21038-.71576.11267-2.57378.48118-2.65591.71706-.15984.7448-.6673.92431-1.16031.19689-.54077.44537-1.06262.65094-1.60052.02679-.07011-.068-.18668-.1064-.28172l.28124-.40384-.49428-.05966.36761-1.56669.206.02218.129.79606,2.27168-6.19149-.2105-.08533a24.05419,24.05419,0,0,0-1.76763,4.4208,12.70846,12.70846,0,0,1,1.33473-4.434,6.53083,6.53083,0,0,0,.44723-1.24167c.26905-.92625.48878-1.8674.7765-2.78751.45266-1.44755.9486-2.88151,1.41692-4.32426.0932-.28713.10742-.61711.62668-.67487l-.28154.943a2.98216,2.98216,0,0,0,.78215-2.0629l-.44811.8188a.73546.73546,0,0,1-.03668-1.0483c.87068-1.10989.84635-2.52556,1.3456-3.7619.5018-1.24266.86842-2.54195,1.25871-3.82723,1.64348-5.41226,3.2221-10.84508,4.94723-16.231A14.89389,14.89389,0,0,1,52.93847,59.775c.49019-.739.93507-.77285,1.68218-.28373a5.11076,5.11076,0,0,1,1.115,1.05731,14.94116,14.94116,0,0,1,.98123,1.45927,1.40462,1.40462,0,0,1-.107,1.86947,14.02629,14.02629,0,0,0-2.20222,3.96358c-.75979,1.92435-1.51429,3.851-2.24469,5.78659-.1436.38054-.14429.81249-.251,1.21-.25909.96481-.55335,1.92018-.811,2.88535-.17764.66545-.31769,1.34094-.47471,2.0119-.11348.4849-.01071,1.05473-.59609,1.351-.10639.05385-.116.30588-.16328.46846-.48071,1.65232-.94722,3.30891-1.445,4.95605-.24927.82484-.54362,1.63677-.84058,2.4461a8.5487,8.5487,0,0,1-.44642.91161c-.05941.11658-.1808.22256-.19058.3403C46.78282,92.152,45.905,93.88257,45.324,95.701c-.59406.39121-.41192,1.0243-.49845,1.57748A12.38642,12.38642,0,0,1,43.49845,101.07a7.95088,7.95088,0,0,0-.48511,1.4463c-.25051.85928-.47693,1.72556-.7248,2.58563-.17171.59581-.36492,1.18539-.54394,1.77913-.11628.38566-.10409.81986-.52633,1.07465-.11469.06919-.15737.29958-.18546.46412a46.94178,46.94178,0,0,1-2.15363,7.12174c-.5979,1.762-1.10573,3.55445-1.66259,5.33054-.09817.31314-.24033.61249-.41072,1.04a2.184,2.184,0,0,0,.67764-.17893c.66763-.48424,1.30975-1.00363,1.96148-1.50982.87134-.6768,1.72883-1.37248,2.61769-2.02543a21.69558,21.69558,0,0,0,3.977-3.4525.50016.50016,0,0,1,.073-.07335,60.79249,60.79249,0,0,0,4.90559-4.9623c1.64047-1.62632,3.16-3.37641,4.703-5.09874,1.56615-1.7482,3.10487-3.5213,4.634-5.302a11.50209,11.50209,0,0,0,.69208-1.1186c.24058-.35737.514-.6926.77307-1.03754l.201.10675a2.6039,2.6039,0,0,1-.18683.59168,14.53655,14.53655,0,0,1-.9621,1.47066c-1.33262,1.7091-2.5879,3.49367-4.05991,5.07523-2.02926,2.18027-3.91856,4.48437-5.97481,6.63556-2.05045,2.14512-4.15422,4.24061-6.27489,6.31672-1.183,1.15812-2.44559,2.23511-3.67841,3.34187a1.69031,1.69031,0,0,0-.52707.56989,9.25631,9.25631,0,0,0,2.90247-2.21841A8.48953,8.48953,0,0,1,45.76774,117.01a.57422.57422,0,0,0,.16146-.12848c1.74873-1.8956,3.90683-3.41537,5.22552-5.70888a3.12987,3.12987,0,0,1,.64295-.64788,5.78114,5.78114,0,0,0,1.13252-1.04747c.881-1.4577,2.28948-2.42456,3.33165-3.72507q1.5541-1.93937,3.11152-3.87606c.9737-1.21017,1.97073-2.4023,2.91762-3.63306.55655-.7234,1.03681-1.50564,1.54758-2.264a2.971,2.971,0,0,1,.20037-.35931,66.48979,66.48979,0,0,0,4.345-5.74683,1.78068,1.78068,0,0,0,.36646-.93994l-1.26385,1.538-.17085-.10088a16.788,16.788,0,0,1,.97883-1.70825c1.05532-1.44027,2.159-2.84509,3.24361-4.26392a1.04547,1.04547,0,0,0,.18266-.24438c.66664-1.87543,2.07612-3.304,3.014-5.01575a1.08313,1.08313,0,0,1,.24777-.3299,9.92627,9.92627,0,0,0,2.27618-3.51817C78.04319,73.793,78.91256,72.341,79.722,70.857c.50934-.93381.97618-1.89081,1.48-2.87236-1.00016-1.04875-1.83116.17946-2.7862.04442a1.92289,1.92289,0,0,1,.10485-.63592,17.33927,17.33927,0,0,1,1.37313-2.30347c.94911-1.22142,1.998-2.36527,3.07151-3.61919a25.51923,25.51923,0,0,1,3.9232,2.59142,1.73017,1.73017,0,0,1,.54948,1.7502,25.93323,25.93323,0,0,1-3.08248,7.97409c-.42893.74824-.854,1.50152-1.33474,2.21628-.35825.53268-.80259,1.00754-1.2097,1.50724a18.10464,18.10464,0,0,0-1.15338,1.42672c-1.04257,1.58566-2.03686,3.203-3.07632,4.7908A12.74857,12.74857,0,0,1,76.66359,84.8a1.10133,1.10133,0,0,0-.14524.33048c-.08.22021-.09214.50351-.2406.6537a14.5856,14.5856,0,0,0-1.405,2.0735c-1.66259,2.37363-3.33189,4.745-5.08651,7.05032a22.92551,22.92551,0,0,1-1.76538,2.14538,22.72726,22.72726,0,0,0-1.85151,2.44344c-1.1795,1.57305-2.35995,3.14649-3.58487,4.684-1.13352,1.42285-2.30682,2.81536-3.50026,4.18851-.56192.64653-1.21306,1.2154-1.8217,1.82154a3.12968,3.12968,0,0,0-.41926.44928,28.84116,28.84116,0,0,1-3.75734,4.26657,25.53249,25.53249,0,0,1-2.818,2.87856c-1.44717,1.044-2.43386,2.52155-3.81451,3.60533-1.35708,1.06528-2.7138,2.13415-4.01969,3.26056a27.65369,27.65369,0,0,1-3.592,2.776,2.23365,2.23365,0,0,0-.33912.36606c.68664.37194,1.30233.74106,1.94788,1.04722,1.11675.52964,2.26639.99089,3.37587,1.53461,1.38607.67926,2.75534,1.39488,4.1099,2.135a6.583,6.583,0,0,1,1.00829.85464c-.66432.43084-.75513-.30244-1.11058-.345-.30426.18483-.40195.37819-.16505.67988a1.30439,1.30439,0,0,0,1.50471.52774c-.02551.63524.4815.70765.90461.96274,1.08921.65667,2.11141,1.42542,3.15147,2.162.24857.176.41779.4093.811.2426.16693-.07077.48541.14394.70332.27977.52359.32642,1.03259.67694,1.5384,1.03073a1.12055,1.12055,0,0,1,.4205.40186,2.93146,2.93146,0,0,0,1.38027,1.33645c1.05725.64968,2.09449,1.33449,3.11436,2.04177a42.03726,42.03726,0,0,0,4.26235,2.53138,28.07735,28.07735,0,0,1,3.574,2.58169c.74729.56534,1.46435,1.17064,2.26319,1.687a4.00477,4.00477,0,0,0-1.56559-1.93007,5.71244,5.71244,0,0,1-.64194-.60728c-.27379-.25815-.55555-.508-.82536-.77017-.34209-.33246-.67687-.6725-1.01245-1.01159-.30164-.30474-.79948-.41881-.897-.922l-.01884.02348c.71451-.16774,1.37829-.04136,1.58582.51337a1.85649,1.85649,0,0,0,1.163,1.02637c1.77287.79285,2.92579,2.272,4.15338,3.65935a1.64318,1.64318,0,0,1,.34846,1.63065,12.07787,12.07787,0,0,0-.6032,3.654,1.932,1.932,0,0,1-1.40259,1.52c-.50542.07846-1.01224.1479-1.5457.22531a5.74577,5.74577,0,0,0-.68153-.5776,1.00109,1.00109,0,0,1-.47016-1.46279,2.10941,2.10941,0,0,0,.01313-1.0117c-.01881-.1999-.16479-.38755-.18487-.58763-.17775-1.77082-1.49244-2.621-2.8163-3.43108a2.00846,2.00846,0,0,1-.96144-1.12247,1.62194,1.62194,0,0,0-.50227-.74425c-1.31247-1.00437-2.64992-1.97614-3.98279-2.95365-.03895-.02858-.121.00157-.29577.00938l.92488,1.28207c-1.04128-.29328-1.46909-1.06586-2.15926-1.50784l.75.05974c0-.06114.02558-.15477-.00383-.17761-.4556-.35383-.88782-.793-1.55365-.4892a.96029.96029,0,0,1-.26373.01979c-.7701-.95919-2.3397-.73444-3.08058-1.98923l.53675-.32239-1.75513-.89539-.108.13479.95673.86012c-1.119-.027-1.48934-.32308-1.71273-1.09928-.05709-.19838-.36909-.32337-.564-.48209l-.38273-.18977a6.30418,6.30418,0,0,0-.585-.45265c-.02736-.01723-.16979.14831-.25893.2292l-.01562.01357a6.03612,6.03612,0,0,1-1.18875-.30863c-1.1737-.57076-2.31836-1.20088-3.48171-1.79342q-1.42553-.72606-2.86881-1.41717c-1.02366-.49264-2.0488-.98324-3.08578-1.44683-.65355-.29217-1.32822-.5378-1.99657-.79615-1.46405-.56592-2.93011-1.12665-4.4961-1.72819a2.41477,2.41477,0,0,0-.24439.409c-.3308,1.0043-.6792,2.00406-.969,3.02037-.70816,2.48314-1.40786,4.96911-2.07091,7.46457-.371,1.39627-.65363,2.81581-.99462,4.22037a6.47225,6.47225,0,0,1-.39667,1.1646,7.80962,7.80962,0,0,0-.70048,2.70782c.891-.90576,1.23058-1.9044,2.02988-2.61018q-.32754.73647-.655,1.47295c-.38105.13541-.46476.4457-.55578.75167l.18772.09341ZM65.7974,95.26856l.62273-.82762A12.32939,12.32939,0,0,0,68.803,90.96221c-.14493.0667-.31637.08833-.37374.18075-.67889,1.09384-1.34076,2.19826-2.00715,3.29985l-.62186.82831-.65458.79874a41.45917,41.45917,0,0,0-3.9411,4.691,3.725,3.725,0,0,1-.81712,1.04163,4.56378,4.56378,0,0,0-1.43082,2.1631c-.56317.52154-1.16384,1.00941-1.67444,1.57814a4.94428,4.94428,0,0,0-.58579,1.13336,4.8867,4.8867,0,0,0-.92121.5745c-.61311.60037-1.17152,1.2562-1.76188,1.8803-.91976.97233-1.86423,1.92188-2.76488,2.91143A3.58785,3.58785,0,0,0,50.25,113.7774a5.76756,5.76756,0,0,0,.51363-.4237q2.81985-3.083,5.62762-6.177a2.50173,2.50173,0,0,0,.28392-.519l2.29409-2.68025a1.87572,1.87572,0,0,0,.39519-.29172q2.84817-3.5862,5.67946-7.18579a1.76421,1.76421,0,0,0,.17168-.36413Zm-26.491,9.51193-.20082-.13877c-.57469,1.65438-1.18163,3.29837-1.71783,4.96513q-2.16521,6.7305-4.26939,13.48052c-.02947.09393.1295.247.28556.52248.1405-.49866.22679-.82756.32578-1.1526.75336-2.47374,1.49884-4.95,2.27815-7.41556a3.37171,3.37171,0,0,1,.601-.82c-.66671-.46762.13382-.56466.24456-.69563a5.52152,5.52152,0,0,1,.01337-1.17424c.19294-.76827.44515-1.52241.69144-2.27637C38.13527,108.30863,38.723,106.54526,39.30636,104.78049Zm-16.53748,56.8586q1.957-7.639,3.90827-15.27954c.0107-.042-.06647-.10637-.25487-.38743A129.16854,129.16854,0,0,0,22.76888,161.63909Zm23.86868-44.25226a15.06241,15.06241,0,0,0,3.37539-3.5519,3.85621,3.85621,0,0,0-.48072.31139c-.88235.81035-1.76344,1.62226-2.63159,2.44772C46.68642,116.79772,46.42168,117.02113,46.63756,117.38683ZM26.52465,145.63371a14.28628,14.28628,0,0,0,1.63292-5.64285Zm16.58663-25.30462a3.81066,3.81066,0,0,0,2.03295-1.76951A8.04069,8.04069,0,0,0,43.11128,120.32909Zm-13.836,15.33009.24365.09541a4.98963,4.98963,0,0,0,.62411-2.33807l-.20342-.05774Zm.21052-2.56375a3.69241,3.69241,0,0,0-.70115,2.334c.19868-.53033.33589-.83736.42789-1.15737C29.32366,133.88557,29.39645,133.48812,29.48582,133.09543ZM42.99073,90.76665l-.27963-.07959-.3258,1.24313.20776.05787ZM29.26117,137.20978l-.24916-.06737-.32887,1.26968.22545.0609ZM40.387,100.9185l.21433.03423.23155-1.10546-.23932-.0464Zm-8.51,34.2308-.22041-.15291-.38829,1.03671.245.0918ZM73.62786,84.703c-.48346.07194-.71768.32128-.74607.97279Zm-36.36945,38.78.16736.23293.93541-.70955-.11915-.17244ZM41.6817,95.15723l-.19127-.09065-.33671.75446.13068.06377Zm-17.51789,56.6167.19662.0549.174-.64081-.192-.05332ZM44.44515,85.62246l.16242.02618.17491-.77984-.20371-.03789ZM37.422,116.38069l.14065.04339.1654-.48479-.17162-.05273ZM70.56827,86.7353l-.13383-.09578-.41192.55588.13676.0966Zm-40.6481,54.40832.18129.0344.12713-.59991-.19351-.03748ZM74.47454,83.269l-.17331-.1582-.40557.66873.136.0847ZM42.05214,93.37654l-.17141-.01344-.10724.73851c.193-.23459.28608-.29942.303-.38018A1.21238,1.21238,0,0,0,42.05214,93.37654Z"/><path class="cls-1" d="M66.35466,144.24429c-.5395-.30761-1.2493-.3734-1.51642-1.06783-.80761.36753-.70864-.79452-1.30936-.77606-.157-.60168-1.14521-.65428-1.025-1.48182,1.19233.8096,2.34117,1.59767,3.49948,2.37157a.77035.77035,0,0,1,.33438.97511Z"/><path class="cls-1" d="M50.89747,134.72084c1.51854-.2113,2.39428.895,3.6021,1.425-.46319.54823-.85638.339-1.17737.02248-.22246-.21937-.3539-.522-.74-.33208C52.19973,135.21556,51.15924,135.60454,50.89747,134.72084Z"/><path class="cls-1" d="M59.29775,139.01969c.77088.38139,1.76734.38116,2.10808,1.42576C59.846,140.42682,59.20707,140.00286,59.29775,139.01969Z"/><path class="cls-1" d="M65.00953,93.35413c.478-.77026.94287-1.54935,1.449-2.30064.07048-.10462.344-.07242.73729-.1406l-2.01692,2.55478Z"/><path class="cls-1" d="M51.73776,139.81875l.38272.18977.25169.592a1.4695,1.4695,0,0,1-1.494-.9917l.01543-.0134Q51.3155,139.70722,51.73776,139.81875Z"/><path class="cls-1" d="M50.394,133.65243l.21891.92346c-.49214.03205-.92076.04271-.97158-.50281C49.5921,133.54463,49.99919,133.62836,50.394,133.65243Z"/><path class="cls-1" d="M57.485,137.89739l-.90079.41253-.417-1.23976Z"/><path class="cls-1" d="M63.388,95.346l.84363-1.17184C64.25744,94.9895,64.2014,95.07029,63.388,95.346Z"/><path class="cls-1" d="M77.84738,84.49475,76.953,85.87829l-.18246-.1042.827-1.4201Z"/><path class="cls-1" d="M55.2436,136.76765c.40262.09792.725.18917.5276.72084C55.33924,137.42585,55.19248,137.20372,55.2436,136.76765Z"/><path class="cls-1" d="M62.11064,96.81473l.94942-.80972C62.77772,96.63774,62.77772,96.63774,62.11064,96.81473Z"/><path class="cls-1" d="M80.0744,81.0639c-.10024.20238-.20245.40382-.3.6075-.05757.12023-.10774.244-.16123.36618l-.17433-.13977a.68223.68223,0,0,1,.03395-.26335c.13845-.227.29861-.44069.45042-.65951Z"/><path class="cls-1" d="M61.84638,141.49912l-.20223-.97021C62.047,140.87648,62.047,140.87648,61.84638,141.49912Z"/><path class="cls-1" d="M32.95767,119.19752a.75368.75368,0,0,1-.22113,1.05286c.08312-.34217.16624-.68433.24538-1.03045Z"/><path class="cls-1" d="M117.14037,105.52392l.51859-.13469C117.54386,105.68341,117.42657,105.99346,117.14037,105.52392Z"/></svg>